# xmcd CD database file
#
# Track frame offsets:
#	150
#	12812
#	31915
#	52625
#	68930
#	88417
#	101927
#	114847
#	130900
#	142777
#	152715
#	169880
#	185065
#	199495
#	214210
#	237047
#	255292
#	268337
#	284360
#	300670
#
# Disc length: 4310 seconds
#
# Revision: 2
# Processed by: cddbd v1.5.2PL0 Copyright (c) Steve Scherf et al.
# Submitted via: CDex 1.70beta2
#
DISCID=1e10d414
DTITLE=Various Artist - Folk and New Music History（Sony Music Entertainment）Vol.1
DYEAR=1999
DGENRE=Folk
TTITLE0=吉田拓郎/結婚しようよ
TTITLE1=山本コウタロー&ウィークエンド/岬めぐり
TTITLE2=バンバン/「いちご白書」をもう一度
TTITLE3=ふきのとう/白い冬
TTITLE4=五輪真弓/少女
TTITLE5=猫/雪
TTITLE6=吉田拓郎/旅の宿
TTITLE7=森山良子/この広い野原いっぱい
TTITLE8=荒木一郎/空に星があるように
TTITLE9=本田路津子/今日の日はさようなら
TTITLE10=ビリー・バンバン/白いブランコ
TTITLE11=カルメン・マキ/時には母のない子のように
TTITLE12=本田路津子/秋でもないのに
TTITLE13=加藤登紀子/知床旅情
TTITLE14=紙ふうせん&フレンズ/翼をください
TTITLE15=河島英五/酒と涙と男と女
TTITLE16=森田公一とトップギャラン/青春時代
TTITLE17=紙ふうせん/冬が来る前に
TTITLE18=ハイ・ファイ・セット/卒業写真(ライヴ)
TTITLE19=浜田省吾/路地裏の少年
EXTD=YEAR: 1999
EXTT0=
EXTT1=
EXTT2=
EXTT3=
EXTT4=
EXTT5=
EXTT6=
EXTT7=
EXTT8=
EXTT9=
EXTT10=
EXTT11=
EXTT12=
EXTT13=
EXTT14=
EXTT15=
EXTT16=
EXTT17=
EXTT18=
EXTT19=
PLAYORDER=
